<?xml version="1.0" encoding="utf-8"?><svg viewBox="0 0 162 108" xmlns="http://www.w3.org/2000/svg" xmlns:xlink="http://www.w3.org/1999/xlink"><style>:root>svg{display:none}:root>svg:target{display:block}</style><svg fill="none" viewBox="0 0 145 84" id="01" xmlns="http://www.w3.org/2000/svg"><path d="M68.424 12.592c3.125 3.76 5.444 8.178 6.958 13.257 1.562 5.029 2.344 10.302 2.344 15.82 0 6.64-.953 12.598-2.857 17.871-1.904 5.225-4.516 9.57-7.837 13.037-3.418 3.565-7.47 6.25-12.158 8.057-4.688 1.806-9.912 2.71-15.674 2.71-6.299 0-11.914-1.05-16.846-3.15-4.931-2.1-8.935-4.98-12.011-8.642-3.223-3.809-5.64-8.252-7.251-13.33C1.529 53.095.748 47.577.748 41.669c0-5.81.757-11.157 2.27-16.04a39.503 39.503 0 017.252-13.257c3.125-3.809 7.153-6.811 12.085-9.009C27.286 1.166 32.925.067 39.273.067c6.69 0 12.427 1.123 17.212 3.37 4.785 2.246 8.765 5.297 11.939 9.155zm-6.885 29.077c0-11.621-2.002-20.63-6.006-27.026-3.955-6.397-9.35-9.595-16.186-9.595-6.934 0-12.403 3.198-16.407 9.595-4.004 6.396-6.005 15.405-6.005 27.026 0 11.035 1.904 19.922 5.713 26.66 3.857 6.69 9.375 10.034 16.552 10.034 7.178 0 12.695-3.344 16.553-10.034 3.857-6.738 5.786-15.625 5.786-26.66zM144.596 81H95.231v-5.2c1.464-.098 3.735-.293 6.811-.586 3.125-.342 5.273-.684 6.445-1.025 1.514-.489 2.661-1.27 3.443-2.344.83-1.123 1.245-2.784 1.245-4.98V15.447H94.938V9.296h4.028c5.273 0 9.985-.977 14.136-2.93 4.199-1.953 7.202-4.053 9.008-6.299h6.079a972.473 972.473 0 00-.439 11.133c-.146 4.248-.22 8.057-.22 11.426v43.433c0 1.709.366 3.247 1.099 4.614.781 1.318 1.88 2.295 3.296 2.93 1.269.537 3.345 1.025 6.225 1.464 2.881.44 5.03.684 6.446.733V81z" fill="#01996D" fill-opacity=".2"/></svg><svg fill="none" viewBox="0 0 162 84" id="02" xmlns="http://www.w3.org/2000/svg"><path d="M68.256 12.592c3.125 3.76 5.444 8.178 6.958 13.257 1.562 5.029 2.344 10.302 2.344 15.82 0 6.64-.953 12.598-2.857 17.871-1.904 5.225-4.516 9.57-7.837 13.037-3.418 3.565-7.47 6.25-12.158 8.057-4.687 1.806-9.912 2.71-15.674 2.71-6.299 0-11.914-1.05-16.845-3.15-4.932-2.1-8.936-4.98-12.012-8.642-3.223-3.809-5.64-8.252-7.251-13.33C1.36 53.095.58 47.577.58 41.669c0-5.81.757-11.157 2.27-16.04a39.502 39.502 0 017.252-13.257c3.125-3.809 7.153-6.811 12.084-9.009C27.118 1.166 32.758.067 39.106.067c6.689 0 12.426 1.123 17.211 3.37 4.785 2.246 8.765 5.297 11.939 9.155zM61.37 41.669c0-11.621-2.002-20.63-6.006-27.026-3.955-6.397-9.35-9.595-16.186-9.595-6.934 0-12.403 3.198-16.407 9.595-4.003 6.396-6.005 15.405-6.005 27.026 0 11.035 1.904 19.922 5.713 26.66 3.857 6.69 9.375 10.034 16.552 10.034 7.178 0 12.696-3.344 16.553-10.034 3.857-6.738 5.786-15.625 5.786-26.66zM161.86 81H93.231v-9.96c1.319-1.515 3.15-3.2 5.494-5.055 2.343-1.904 5.127-3.955 8.349-6.152 1.953-1.318 4.297-2.759 7.031-4.321a387.232 387.232 0 019.302-5.127c3.858-2.051 6.812-3.858 8.863-5.42 2.099-1.563 4.003-3.491 5.712-5.786 1.123-1.514 2.027-3.394 2.71-5.64.684-2.295 1.026-5.542 1.026-9.741 0-6.104-1.636-10.571-4.907-13.403-3.272-2.881-7.471-4.322-12.598-4.322-3.174 0-6.177.635-9.009 1.905-2.832 1.22-4.956 2.93-6.372 5.127a738.38 738.38 0 001.245 5.566c.537 2.148.806 4.248.806 6.299 0 1.855-.781 3.515-2.344 4.98-1.514 1.416-3.784 2.124-6.811 2.124-2.442 0-4.322-.83-5.64-2.49-1.319-1.709-1.978-3.98-1.978-6.811 0-2.637.733-5.274 2.198-7.91 1.464-2.686 3.564-5.152 6.298-7.398 2.686-2.197 6.006-3.98 9.961-5.347 3.955-1.367 8.228-2.05 12.818-2.05 10.01 0 17.944 2.245 23.803 6.738 5.909 4.443 8.863 10.4 8.863 17.87 0 3.565-.537 6.812-1.612 9.742-1.025 2.93-2.71 5.517-5.053 7.764-2.588 2.49-5.615 4.638-9.082 6.445-3.467 1.758-8.765 4.224-15.894 7.397-4.248 1.905-8.203 3.907-11.865 6.006-3.662 2.051-6.665 4.053-9.009 6.006h56.323V81z" fill="#01996D" fill-opacity=".2"/></svg><svg fill="none" viewBox="0 0 161 108" id="03" xmlns="http://www.w3.org/2000/svg"><path d="M68.269 12.592c3.125 3.76 5.444 8.178 6.958 13.257 1.562 5.029 2.343 10.302 2.343 15.82 0 6.64-.952 12.598-2.856 17.871-1.904 5.225-4.517 9.57-7.837 13.037-3.418 3.565-7.47 6.25-12.158 8.057-4.688 1.806-9.912 2.71-15.674 2.71-6.299 0-11.914-1.05-16.846-3.15-4.931-2.1-8.935-4.98-12.012-8.642-3.222-3.809-5.64-8.252-7.25-13.33C1.374 53.095.593 47.577.593 41.669c0-5.81.757-11.157 2.27-16.04a39.502 39.502 0 017.251-13.257C13.24 8.563 17.268 5.561 22.2 3.363 27.131 1.166 32.77.067 39.12.067c6.689 0 12.426 1.123 17.211 3.37 4.785 2.246 8.765 5.297 11.939 9.155zm-6.885 29.077c0-11.621-2.002-20.63-6.006-27.026-3.955-6.397-9.35-9.595-16.187-9.595-6.933 0-12.402 3.198-16.406 9.595-4.004 6.396-6.006 15.405-6.006 27.026 0 11.035 1.905 19.922 5.713 26.66 3.858 6.69 9.375 10.034 16.553 10.034 7.178 0 12.695-3.344 16.553-10.034 3.857-6.738 5.786-15.625 5.786-26.66zm59.472 66.064c-4.589 0-8.789-.586-12.597-1.757-3.809-1.123-7.08-2.662-9.815-4.615-2.734-1.953-4.858-4.199-6.372-6.738-1.465-2.539-2.197-5.151-2.197-7.837 0-2.392.586-4.54 1.758-6.445 1.172-1.953 3.052-2.93 5.64-2.93 2.929 0 5.151.733 6.665 2.197 1.562 1.416 2.343 3.052 2.343 4.908 0 1.562-.268 3.54-.805 5.932-.489 2.393-.879 4.102-1.172 5.127.342.44.952 1.026 1.831 1.758.927.732 2.051 1.392 3.369 1.978a27.85 27.85 0 004.907 1.757c1.709.44 4.126.66 7.251.66 2.93 0 5.737-.489 8.423-1.465 2.734-.977 5.127-2.54 7.178-4.688 2.148-2.246 3.808-4.883 4.98-7.91 1.221-2.979 1.831-6.91 1.831-11.792 0-2.637-.293-5.249-.879-7.837-.537-2.588-1.562-4.834-3.076-6.738-1.514-1.904-3.589-3.37-6.225-4.395-2.588-1.074-5.884-1.611-9.888-1.611h-9.595v-8.423h6.372c6.738 0 11.597-1.855 14.575-5.566 2.979-3.711 4.468-9.302 4.468-16.773 0-6.103-1.44-10.693-4.321-13.77-2.881-3.124-6.958-4.687-12.232-4.687-2.539 0-4.638.318-6.298.952-1.612.586-2.93 1.172-3.955 1.758-1.221.684-2.222 1.44-3.003 2.27a96.71 96.71 0 01-1.758 1.832c.342 1.562.757 3.491 1.245 5.786.488 2.246.732 4.394.732 6.445 0 1.807-.781 3.443-2.343 4.907-1.514 1.416-3.76 2.125-6.739 2.125-2.588 0-4.492-.928-5.713-2.784-1.172-1.855-1.757-4.004-1.757-6.445 0-2.54.708-5.127 2.124-7.764 1.416-2.636 3.515-5.102 6.298-7.397 2.784-2.295 6.177-4.15 10.181-5.567C116.291.775 120.905.067 126.13.067c6.006 0 10.962.904 14.868 2.71 3.955 1.758 7.056 3.907 9.302 6.446 2.197 2.49 3.711 5.102 4.541 7.837.83 2.734 1.245 5.078 1.245 7.03 0 2.442-.342 4.908-1.025 7.398-.684 2.442-1.807 4.712-3.37 6.812-1.709 2.295-3.979 4.394-6.811 6.299-2.783 1.855-6.299 3.369-10.547 4.54v1.172c2.734.245 5.64.855 8.716 1.832 3.125.976 5.932 2.417 8.423 4.32 2.588 2.003 4.712 4.59 6.372 7.765 1.66 3.125 2.49 7.104 2.49 11.938 0 9.375-3.76 16.968-11.279 22.778-7.52 5.86-16.919 8.789-28.199 8.789z" fill="#01996D" fill-opacity=".2"/></svg><svg viewBox="0 0 81 24" id="logo" xmlns="http://www.w3.org/2000/svg"><path d="M10.15 1.76h3.87L23.26 23h-5.28l-1.83-4.5H7.9L6.13 23H.97l9.18-21.24zm1.8 6.18l-2.58 6.6h5.19l-2.61-6.6zM24.886.32h4.5V23h-4.5V.32zM32.68 8.42h4.5V23h-4.5V8.42zm-.36-4.59c0-.72.25-1.33.75-1.83.52-.52 1.14-.78 1.86-.78.72 0 1.33.26 1.83.78.52.5.78 1.11.78 1.83s-.26 1.34-.78 1.86c-.5.5-1.11.75-1.83.75s-1.34-.25-1.86-.75a2.59 2.59 0 01-.75-1.86zM38.882 8.42h4.86l3.69 9.9h.06l3.42-9.9h4.53L49.682 23h-4.77l-6.03-14.58zM57.142 8.42h4.5V23h-4.5V8.42zm-.36-4.59c0-.72.25-1.33.75-1.83.52-.52 1.14-.78 1.86-.78.72 0 1.33.26 1.83.78.52.5.78 1.11.78 1.83s-.26 1.34-.78 1.86c-.5.5-1.11.75-1.83.75s-1.34-.25-1.86-.75a2.59 2.59 0 01-.75-1.86zM64.335 15.71c0-1.16.21-2.21.63-3.15.42-.94.99-1.74 1.71-2.4.74-.68 1.6-1.2 2.58-1.56 1-.36 2.06-.54 3.18-.54s2.17.18 3.15.54c1 .36 1.86.88 2.58 1.56.74.66 1.32 1.46 1.74 2.4.42.94.63 1.99.63 3.15s-.21 2.21-.63 3.15c-.42.94-1 1.75-1.74 2.43-.72.66-1.58 1.17-2.58 1.53-.98.36-2.03.54-3.15.54s-2.18-.18-3.18-.54c-.98-.36-1.84-.87-2.58-1.53a7.525 7.525 0 01-1.71-2.43c-.42-.94-.63-1.99-.63-3.15zm4.5 0c0 1.1.31 1.99.93 2.67.64.68 1.53 1.02 2.67 1.02s2.02-.34 2.64-1.02c.64-.68.96-1.57.96-2.67 0-1.1-.32-1.99-.96-2.67-.62-.68-1.5-1.02-2.64-1.02-1.14 0-2.03.34-2.67 1.02-.62.68-.93 1.57-.93 2.67z"/></svg><svg viewBox="0 0 16 16" id="signin" xmlns="http://www.w3.org/2000/svg"><path fill-rule="evenodd" d="M11.992 8.994V6.996H7.995v-2h3.997V2.999l3.998 2.998-3.998 2.998zm-1.998 2.998H5.996V2.998L2 1h7.995v2.998h1V1c0-.55-.45-.999-1-.999H.999A1.001 1.001 0 000 1v11.372c0 .39.22.73.55.91L5.996 16v-3.008h3.998c.55 0 1-.45 1-1V7.996h-1v3.998z"/></svg></svg>